<?xml version="1.0" encoding="UTF-8"?>
<svg id="Calque_2" data-name="Calque 2" xmlns="http://www.w3.org/2000/svg" xmlns:xlink="http://www.w3.org/1999/xlink" viewBox="0 0 163.69 330.89">
  <defs>
    <style>
      .cls-1 {
        fill: url(#Dégradé_sans_nom_29);
        stroke-width: 0px;
      }
    </style>
    <linearGradient id="Dégradé_sans_nom_29" data-name="Dégradé sans nom 29" x1="-178.15" y1="-280.61" x2="869.56" y2="767.1" gradientTransform="translate(122.66 244.91) rotate(-36.38)" gradientUnits="userSpaceOnUse">
      <stop offset="0" stop-color="#53f29a"/>
      <stop offset=".12" stop-color="#52f098"/>
      <stop offset=".16" stop-color="#4fe994"/>
      <stop offset=".19" stop-color="#4bdd8d"/>
      <stop offset=".22" stop-color="#44cc82"/>
      <stop offset=".24" stop-color="#3cb675"/>
      <stop offset=".25" stop-color="#36a66b"/>
      <stop offset=".36" stop-color="#35a369"/>
      <stop offset=".41" stop-color="#329c64"/>
      <stop offset=".45" stop-color="#2d8e5c"/>
      <stop offset=".49" stop-color="#267c50"/>
      <stop offset=".5" stop-color="#23734b"/>
      <stop offset=".58" stop-color="#216f48"/>
      <stop offset=".64" stop-color="#1d6640"/>
      <stop offset=".7" stop-color="#175533"/>
      <stop offset=".75" stop-color="#0f4022"/>
      <stop offset="1" stop-color="#0f4022"/>
    </linearGradient>
  </defs>
  <g id="Calque_1-2" data-name="Calque 1">
    <path class="cls-1" d="M163.66,139.36c0-.13-.07-.27-.14-.4,0-.03,0-.1-.03-.14l-22.41-38.68h-4.35l22.65,39.05-33.14,23.19L87.28,14.85l37.8,65.21h4.35L83.53.91s-.03,0-.03-.03c-.07-.07-.14-.13-.2-.24-.03-.07-.1-.1-.17-.17,0-.03-.03-.03-.07-.07-.07-.07-.2-.14-.3-.17-.03-.03-.07-.07-.13-.1h-.03s-.07-.03-.07-.03c-.03-.03-.07-.03-.07-.03-.1-.03-.24-.03-.34-.03-.07-.03-.1-.03-.17-.03h-.07c-.07,0-.13.03-.2.03-.1,0-.17,0-.24.03-.03,0-.1,0-.14.03-.03,0-.03.03-.07.03h-.03c-.07.03-.1.07-.17.1-.1.07-.2.1-.27.17-.03.03-.07.03-.07.07-.07.07-.13.1-.17.17-.07.1-.13.17-.2.24,0,.03-.03.03-.03.03l-45.97,79.14h4.32L76.55,14.85l-39.12,147.49-33.11-23.22,22.65-38.98h-4.32L.24,138.71s-.03.1-.07.13c-.07.14-.13.3-.17.44v.64c.03.1.03.17.07.27.03.07.03.13.03.2l35.47,84h4.05L6.11,144.92l30.78,21.63,12.76,48.33,2.53,9.52.57,2.19,3.38,12.76,17.04,64.56-25.08-59.43h-4.05l35.98,85.29s.03.03.03.07c.03.03.07.07.1.13.07.1.1.17.17.24s.1.13.17.17c.03.03.03.07.07.1.1.03.2.1.3.17.03.03.1.07.2.1.03,0,.03.03.07.03.17.07.34.1.51.1h.2c.13-.03.27-.03.4-.07.03,0,.07,0,.1-.03h.07c.13-.07.3-.13.44-.27.13-.1.27-.24.37-.37.03,0,.03-.03.03-.03l.2-.34,36.11-85.29h-4.08l-25.14,59.43,17.04-64.36,2.73-10.29,1.28-4.86,15.36-57.81,27.68-19.37,3.14-2.19-33.58,79.38h4.05l35.54-83.94c0-.07,0-.14.03-.2.03-.1.03-.17.07-.24v-.4c0-.07,0-.17-.03-.27ZM117.52,186.91l-13.94,52.55-21.84,82.25-21.77-82.45-19-71.96h40.87l40.84.03-5.16,19.58ZM81.84,163.55h-40.87l5.2-19.58L81.91,9.18l40.77,154.41-40.84-.03Z"/>
  </g>
</svg>